# xmcd CD database file
#
# Track frame offsets:
#	150
#	34399
#	62538
#	107589
#	131005
#	173203
#	244781
#	271946
#	306337
#	311764
#
# Disc length: 4483 seconds
#
# Revision: 0
# Processed by: cddbd v1.5.2PL0 Copyright (c) Steve Scherf et al.
# Submitted via: CDex 1.70beta3
#
DISCID=8b11810a
DTITLE=渋さ知らズ - 渋夜旅
DYEAR=2010
DGENRE=Jazz
TTITLE0=ドラゴ
TTITLE1=権太アジール
TTITLE2=水の中の虹虫
TTITLE3=漂海鷂魚
TTITLE4=島舞踏
TTITLE5=渡
TTITLE6=浮渋
TTITLE7=A Day In The Live
TTITLE8=浮渋エピローグ
TTITLE9=権太チョッパー Part1
EXTD=YEAR: 2010
EXTT0=
EXTT1=
EXTT2=
EXTT3=
EXTT4=
EXTT5=
EXTT6=
EXTT7=
EXTT8=
EXTT9=
PLAYORDER=
